<?xml version="1.0" encoding="UTF-8" standalone="no"?>
<!-- Created with Inkscape (http://www.inkscape.org/) -->

<svg
   width="51.795883mm"
   height="36.491184mm"
   viewBox="0 0 51.795881 36.491184"
   version="1.1"
   id="svg1"
   xmlns="http://www.w3.org/2000/svg"
   xmlns:svg="http://www.w3.org/2000/svg">
  <defs
     id="defs1" />
  <g
     id="layer1"
     transform="translate(-140.02375,-46.987918)">
    <path
       d="m 150.78658,55.784088 c -5.91062,0 -10.11761,7.95113 -10.69392,14.66267 l 2.75642,-2.75642 2.64584,2.64583 3.96875,-2.64583 1.32291,2.64583 2.64584,-2.64583 2.64584,2.64583 3.96875,-2.64583 1.32395,1.76527 c -0.88159,-6.47806 -4.96255,-13.67152 -10.58438,-13.67152 z"
       style="fill:#d1a468;stroke-width:0.264583px"
       id="path3" />
    <path
       d="m 161.37096,69.369368 -1.32395,-1.76527 -3.96875,2.64583 -2.64584,-2.64583 -2.64583,2.64583 -1.32292,-2.64583 -3.96875,2.64583 -2.64583,-2.64583 -2.75642,2.75642 c -0.11699,1.36242 -0.0882,2.67491 0.11058,3.85816 0.77647,4.622844 5.89574,9.260424 10.58334,9.260424 4.68759,0 9.80686,-4.63758 10.58333,-9.260424 0.24659,-1.46807 0.23448,-3.13395 0.001,-4.84931 z"
       style="fill:#d1a468;stroke-width:0.264583px"
       id="path5" />
    <path
       d="m 181.06189,46.987918 c -5.91063,0 -10.11761,7.95113 -10.69392,14.66267 l 2.75642,-2.75642 2.64583,2.64583 3.96875,-2.64583 1.32292,2.64583 2.64583,-2.64583 2.64584,2.64583 3.96875,-2.64583 1.32395,1.76527 c -0.88159,-6.47806 -4.96255,-13.67152 -10.58437,-13.67152 z"
       style="fill:#d1a468;stroke-width:0.264583px"
       id="path6" />
    <path
       d="m 191.64012,69.369368 -1.32395,-1.76527 -3.96875,2.64583 -2.64583,-2.64583 -2.64584,2.64583 -1.32291,-2.64583 -3.96875,2.64583 -2.64584,-2.64583 -2.75642,2.75642 c -0.11699,1.36242 -0.0882,2.67491 0.11059,3.85816 0.77647,4.622844 5.89574,9.260424 10.58333,9.260424 4.6876,0 9.80686,-4.63758 10.58333,-9.260424 0.24659,-1.46807 0.23448,-3.13395 0.001,-4.84931 z"
       style="fill:#d1a468;stroke-width:0.264583px"
       id="path7" />
  </g>
</svg>
