<?xml version="1.0" encoding="UTF-8" standalone="no"?>
<!-- Created with Inkscape (http://www.inkscape.org/) -->

<svg
   width="25.928738mm"
   height="4.3553381mm"
   viewBox="0 0 25.928738 4.3553381"
   version="1.1"
   id="svg1"
   xmlns="http://www.w3.org/2000/svg"
   xmlns:svg="http://www.w3.org/2000/svg">
  <defs
     id="defs1" />
  <g
     id="layer1"
     transform="translate(-59.513711,-120.43737)">
    <path
       style="font-size:3.52797px;font-family:Zyzol;-inkscape-font-specification:Zyzol;fill:#ff751e;stroke:#000000;stroke-width:0.183343"
       d="m 62.216939,124.01945 -0.536898,-2.06214 c 0,0 -0.03645,-0.13999 -0.06806,-0.1354 -0.147839,0.0203 -0.418587,0.0725 -0.530971,0.13095 -0.02984,0.0114 0.0118,0.15734 0.0118,0.15734 0,0 0.07733,0.29703 0.173337,0.66576 -0.137455,0.0321 -0.295254,0.0842 -0.295254,0.0842 -0.179172,0.0539 -0.389071,0.11588 -0.568243,0.16982 -0.05778,-0.22192 -0.130386,-0.47279 -0.191579,-0.69382 0,0 -0.03733,-0.14339 -0.06465,-0.13628 -0.150364,0.0246 -0.424526,0.0777 -0.532607,0.13867 -0.02553,0.0139 0.01521,0.15644 0.01521,0.15644 l 0.03822,0.14681 c 0.133941,0.48644 0.27055,0.98313 0.404491,1.46958 0.0676,0.17562 0.08113,0.42364 0.189558,0.57404 0.151395,-0.007 0.414143,-0.0896 0.529194,-0.13778 0.03325,-0.0123 -0.0118,-0.15733 -0.0118,-0.15733 -0.06919,-0.25176 -0.143719,-0.524 -0.212912,-0.77576 0.172343,-0.0522 0.376304,-0.10891 0.545981,-0.17132 0,0 0.183475,-0.0514 0.302829,-0.0971 0.114668,0.44042 0.215114,0.82622 0.216003,0.82964 0.0027,0.0102 0.03556,0.13656 0.06376,0.13287 0.151394,-0.007 0.41592,-0.0828 0.530971,-0.13096 0.03325,-0.0123 -0.0084,-0.15822 -0.0084,-0.15822 z m 2.175264,-0.94714 c -0.02701,-0.009 -0.07861,0.0916 -0.09034,0.10474 -0.06208,0.0666 -0.110638,0.0225 -0.131642,-0.0633 -0.06327,-0.34715 -0.102345,-0.69921 -0.116513,-1.05273 0,0 -0.0094,-0.13489 -0.03639,-0.14381 -0.08033,-0.0233 -0.575807,-0.0523 -0.565019,0.0895 -1.040327,-0.1416 -1.388906,1.10275 -0.693778,1.74282 0.343326,0.29029 0.850219,0.19819 1.172541,-0.076 0.212828,0.14399 0.497794,0.11134 0.676464,-0.0725 0.09385,-0.0874 0.147449,-0.21353 0.14984,-0.34361 -0.01118,-0.0373 -0.260582,-0.1487 -0.365163,-0.18507 z m -0.755075,0.16409 c 0,0 -0.437874,0.27249 -0.550409,-0.12226 -0.112536,-0.39475 0.03301,-0.54669 0.423862,-0.57204 0.02628,0.23586 0.06985,0.46821 0.126547,0.6943 z m 3.093881,-0.89934 c -0.104706,-0.62643 -0.736571,-0.9383 -1.312756,-0.71271 -0.147233,-0.006 -0.430534,0.008 -0.546016,0.0463 -0.03035,0.0117 -0.01238,0.15526 -0.01238,0.15526 0.03246,0.28766 0.06807,0.59626 0.104023,0.88339 0.05481,0.48409 0.112752,0.98911 0.171046,1.47268 0.0012,0.0319 0.01798,0.14356 0.03943,0.14391 0.134325,0.0155 0.372094,-0.0166 0.482168,-0.0438 0.02791,-0.004 0.0089,-0.15474 0.0089,-0.15474 l 0.0035,-5.2e-4 c -0.02095,-0.21091 -0.04312,-0.45374 -0.0611,-0.66865 0.714892,0.12817 1.274486,-0.39817 1.123197,-1.12107 z m -0.680491,0.43389 c -0.0099,0.005 -0.01535,0.0166 -0.02128,0.0246 -0.126467,0.10817 -0.311031,0.11446 -0.469255,0.10609 -0.02007,-0.22887 -0.04434,-0.48565 -0.06441,-0.71453 0.171304,-0.0471 0.394246,-0.0592 0.516543,0.0902 0.0096,0.0164 0.02617,0.0318 0.03227,0.0487 0.02983,0.0562 0.04676,0.12141 0.05322,0.18823 0.0096,0.0877 0.0058,0.18107 -0.04709,0.25678 z m 2.867349,-0.66105 c -0.07384,-0.63082 -0.689634,-0.97333 -1.276196,-0.77628 -0.146739,-0.0137 -0.430385,-0.0136 -0.547628,0.0194 -0.03089,0.0102 -0.01998,0.15446 -0.01998,0.15446 0.01831,0.28891 0.03872,0.59888 0.06054,0.88743 0.03098,0.4862 0.06407,0.99345 0.09856,1.4793 -3.45e-4,0.0319 0.01091,0.14427 0.03232,0.14567 0.133402,0.0221 0.372461,0.002 0.483738,-0.0201 0.02808,-0.003 0.01647,-0.15411 0.01647,-0.15411 l 0.0035,-3.5e-4 c -0.01057,-0.21168 -0.02079,-0.4553 -0.02821,-0.67084 0.707739,0.1631 1.29249,-0.33514 1.176862,-1.06459 z m -0.700966,0.39997 c -0.01018,0.005 -0.01614,0.0158 -0.02246,0.0235 -0.131623,0.10183 -0.316274,0.0991 -0.473897,0.0829 -0.0088,-0.22959 -0.02045,-0.48725 -0.02927,-0.71683 0.17341,-0.0387 0.396675,-0.0397 0.511495,0.1154 0.0088,0.0169 0.02458,0.033 0.02985,0.0502 0.02704,0.0576 0.04074,0.12356 0.04392,0.19061 0.0053,0.0881 -0.0031,0.18114 -0.05963,0.25417 z m 2.805519,-1.31642 c -0.12973,-0.0499 -0.370129,-0.12233 -0.486761,-0.12342 -0.02484,-0.002 -0.0599,0.14085 -0.0599,0.14085 -0.100649,0.37961 -0.214669,0.77404 -0.340524,1.14435 -0.166583,-0.35532 -0.296035,-0.74433 -0.462618,-1.09965 0,0 -0.05953,-0.12766 -0.08402,-0.12287 -0.118348,0.0343 -0.371579,0.12503 -0.453069,0.18926 -0.02042,0.0152 0.03243,0.15024 0.03243,0.15024 0.08889,0.218 0.186275,0.46382 0.275348,0.68534 0.132164,0.30409 0.227377,0.64541 0.387186,0.93749 -0.109138,0.21401 -0.27483,0.4274 -0.51487,0.49976 -0.04472,0.0235 -0.148342,5.4e-4 -0.174361,0.0443 -0.02485,0.13551 -0.09938,0.40428 -0.08177,0.54115 0.02719,0.0481 0.203178,0.0355 0.224138,0.0309 1.20363,-0.15708 1.442441,-1.90736 1.728936,-2.86525 0,0 0.03506,-0.1431 0.0099,-0.15241 z m 3.217599,1.25875 c -0.0099,-0.032 -0.151034,-0.0316 -0.151034,-0.0316 l -0.987584,-0.0221 c 0.0054,-0.0846 0.01234,-0.23615 0.01423,-0.3208 0.218838,-0.002 0.46597,-0.007 0.684887,-0.0129 0.0071,1.6e-4 0.148295,-0.004 0.148847,-0.0284 0.02808,-0.15111 0.03516,-0.30975 0.01739,-0.46189 -0.0029,-0.0283 -0.154483,-0.0352 -0.154483,-0.0352 -0.211467,-0.0118 -0.454521,-0.0313 -0.669515,-0.0432 l 7.8e-5,-0.004 0.01463,-0.33845 c 0.317753,-0.007 0.653142,-0.0136 0.967289,-0.0172 0,0 0.08465,0.002 0.11005,-0.0293 0.08702,-0.10392 0.06253,-0.42913 0.03347,-0.54976 -0.0063,-0.0319 -0.15464,-0.0282 -0.15464,-0.0282 l -0.603684,0.0112 c -0.29667,0.011 -0.603369,-0.003 -0.903881,0.0221 -0.02838,0.006 -0.03521,0.15448 -0.03521,0.15448 l -0.09278,2.0976 c 0,0 -0.01029,0.14445 0.02138,0.14869 0.200334,0.0362 1.455978,0.0643 1.575977,0.0635 0.01411,3.1e-4 0.137636,-4.5e-4 0.141715,-0.0251 0.0429,-0.18254 0.05053,-0.36587 0.02288,-0.54998 z m 2.271412,0.0837 c -0.02356,-0.0159 -0.100575,0.0667 -0.115445,0.0762 -0.07787,0.0472 -0.112573,-0.009 -0.109435,-0.0967 0.03366,-0.35126 0.09194,-0.70066 0.174589,-1.04467 0,0 0.02771,-0.13235 0.0041,-0.14828 -0.07095,-0.0443 -0.539799,-0.20715 -0.568038,-0.0678 -0.962441,-0.41957 -1.636726,0.68281 -1.142189,1.48799 0.251291,0.37283 0.764107,0.42225 1.14893,0.24617 0.165569,0.19651 0.448656,0.2427 0.670646,0.11444 0.114114,-0.0586 0.200027,-0.1653 0.237755,-0.28982 -5.89e-4,-0.039 -0.210236,-0.21404 -0.30096,-0.27752 z m -0.771221,-0.0477 c 0,0 -0.495532,0.14294 -0.496309,-0.26753 -7.78e-4,-0.41048 0.180652,-0.51704 0.563629,-0.43499 -0.03895,0.23411 -0.0603,0.46954 -0.06732,0.70252 z m 2.795777,0.2608 c 0,0 0,0 4.35e-4,-0.004 0.0054,-0.5006 -0.440099,-0.54891 -0.789392,-0.71325 -0.03327,-0.0183 -0.04903,-0.0345 -0.04467,-0.0695 0.007,-0.0276 0.02404,-0.0503 0.04942,-0.0543 0.0074,-0.003 0.01137,-0.006 0.01881,-0.008 0.0074,-0.003 0.01094,-0.002 0.01838,-0.005 0.137828,-0.022 0.277432,-10e-4 0.401306,0.0606 0.007,8.7e-4 0.08448,0.0354 0.102852,0.0306 0.106286,-0.0828 0.193744,-0.18565 0.251435,-0.30646 0.0052,-0.0136 0.003,-0.0245 -0.0066,-0.0328 -0.27542,-0.3009 -0.879347,-0.39025 -1.19556,-0.10607 -0.122468,0.0985 -0.194582,0.24954 -0.196677,0.40926 -0.0021,0.15972 0.06451,0.31021 0.186656,0.41429 0.163305,0.14475 0.501594,0.1975 0.587862,0.30422 0.06437,0.0827 -0.01436,0.14397 -0.07168,0.14751 -0.07613,0.0119 -0.15009,0.006 -0.222304,-0.0134 -0.109418,-0.0349 -0.217965,-0.0769 -0.321269,-0.1324 -0.02714,-0.0105 -0.05427,-0.021 -0.06258,-0.0113 -0.09403,0.0985 -0.179289,0.21234 -0.243982,0.33227 -0.0048,0.0101 0.02322,0.042 0.05561,0.0674 0.175551,0.13205 0.374269,0.22076 0.589152,0.26527 0.357553,0.0694 0.841426,-0.10507 0.888013,-0.50812 0.0026,-0.021 0.0052,-0.042 0.0048,-0.0669 z m 1.828641,0.59319 c -0.06106,-0.1281 -0.13778,-0.24806 -0.230719,-0.3564 -0.02206,-0.0179 -0.117713,0.0199 -0.12525,0.0222 -0.0603,0.0186 -0.224354,0.0809 -0.314852,0.066 -0.02146,3e-5 -0.04119,-0.0104 -0.05281,-0.0266 -0.0151,-0.0168 -0.01861,-0.0388 -0.01168,-0.0592 0.05303,-0.25584 0.112992,-0.532 0.165445,-0.78436 0.0035,5.7e-4 0.145587,0.006 0.149068,0.007 0,0 0.135144,0.004 0.142654,-0.0193 0.03752,-0.14041 0.05415,-0.28427 0.04642,-0.43216 -0.0029,-0.0255 -0.146218,-0.0456 -0.146218,-0.0456 l -0.08411,-0.0103 c 0.02247,-0.11429 0.05939,-0.27267 0.08186,-0.38696 0,0 0.02941,-0.1346 0.0027,-0.14616 -0.176393,-0.0578 -0.356239,-0.0947 -0.538963,-0.11415 -0.029,0.002 -0.05607,0.14449 -0.05607,0.14449 -0.0242,0.12474 -0.05588,0.29471 -0.08008,0.41944 -0.02436,-0.004 -0.153727,-0.0218 -0.181572,-0.0264 0,0 -0.136324,-0.019 -0.144408,0.008 -0.03689,0.17984 -0.05637,0.36257 -0.05439,0.54526 0.0024,0.029 0.144463,0.0346 0.144463,0.0346 l 0.128184,0.003 c -0.04667,0.23902 -0.101427,0.50531 -0.144617,0.7449 -0.01959,0.0969 -0.01425,0.19432 0.01661,0.28882 0.172864,0.46841 0.79465,0.49255 1.157982,0.24152 0.01102,-0.002 0.132129,-0.0854 0.130347,-0.11791 z m 2.117378,-0.68249 c -0.0026,-0.0222 -0.01275,-0.0423 -0.01949,-0.0618 -0.23061,-0.72244 -1.314481,-0.76227 -1.668466,-0.12277 -0.500568,0.92598 0.306115,1.75479 1.264685,1.42951 0.0027,0.004 0.167298,-0.0586 0.159279,-0.0892 -0.02283,-0.14898 -0.155486,-0.39307 -0.218806,-0.50368 -0.01565,-0.0285 -0.123357,0.021 -0.122633,0.0175 -0.197094,0.0632 -0.471821,0.0669 -0.586265,-0.12654 -0.01437,-0.0174 -0.02038,-0.0403 -0.02985,-0.0639 -0.02756,-0.16078 0.01315,-0.37213 0.161345,-0.46001 0.113333,-0.0591 0.303186,-0.0878 0.429215,0.0503 -0.06867,0.018 -0.132436,0.0299 -0.214358,0.0596 -0.03887,0.0135 -0.161674,0.049 -0.163289,0.0739 -0.0039,0.12174 0.03982,0.25707 0.08348,0.3239 0.0171,0.0216 0.210404,-0.006 0.26927,-0.012 0.234908,-0.0373 0.36027,-0.0506 0.58972,-0.0962 v 0 c 0,0 0.112275,-0.0197 0.110437,-0.0453 0.0056,-0.0781 -0.0014,-0.21659 -0.04427,-0.37336 z m 1.745941,0.077 c -0.0077,-0.0274 -0.13431,-0.0591 -0.170247,-0.0608 -0.159994,-0.0292 -0.334548,-0.0293 -0.492012,0.0186 -0.0017,-0.008 0.0343,-0.15144 0.0061,-0.16942 -0.144584,-0.0471 -0.413224,-0.12171 -0.537295,-0.12006 -0.02909,-10e-6 -0.05911,0.14886 -0.05911,0.14886 -0.103779,0.50137 -0.213553,1.01214 -0.317332,1.51351 -0.0017,0.007 -0.02574,0.1463 -0.0018,0.1523 0.137731,0.06 0.408951,0.10973 0.537295,0.12006 0.03251,8.7e-4 0.05911,-0.14886 0.05911,-0.14886 0.04288,-0.2002 0.09005,-0.43206 0.133799,-0.65024 0.0043,-0.003 0.0094,-0.009 0.01027,-0.012 0.157564,-0.25149 0.426289,-0.35147 0.543516,-0.35483 0.0445,-0.003 0.140318,0.0206 0.176269,-0.007 0.05311,-0.11036 0.103694,-0.32681 0.111446,-0.43034 z m 1.114103,-0.35123 c -0.136988,-0.0603 -0.39873,-0.15921 -0.520898,-0.16775 -0.03248,-0.002 -0.06806,0.13848 -0.06806,0.13848 -0.112598,0.41544 -0.234159,0.87599 -0.346758,1.29143 0,0 -0.03803,0.1359 -0.01615,0.14935 0.106956,0.0629 0.325343,0.12036 0.430118,0.13869 0.02473,0.003 0.07146,-0.13753 0.07146,-0.13753 0.139233,-0.41898 0.289064,-0.84964 0.431694,-1.26767 0,0 0.04578,-0.13739 0.0186,-0.145 z m -1.182822,1.89641 c -0.104308,0.42508 0.460212,0.59405 0.605834,0.19152 0.0952,-0.40565 -0.468503,-0.6037 -0.605834,-0.19152 z"
       id="text1"
       aria-label="Happy Easter!" />
    <path
       style="fill:none;fill-opacity:1;stroke:none;stroke-width:0.18761;stroke-dasharray:none;stroke-opacity:1"
       d="m 60.000218,124.78985 c 8.306027,-2.40577 16.639207,-2.39011 24.999784,0.0687"
       id="path1" />
  </g>
</svg>
