<?xml version="1.0" encoding="UTF-8" standalone="no"?>
<!-- Created with Inkscape (http://www.inkscape.org/) -->

<svg
   width="8.797266mm"
   height="6.0825586mm"
   viewBox="0 0 8.797266 6.0825586"
   version="1.1"
   id="svg1"
   xmlns="http://www.w3.org/2000/svg"
   xmlns:svg="http://www.w3.org/2000/svg">
  <defs
     id="defs1">
    <clipPath
       clipPathUnits="userSpaceOnUse"
       id="clipPath6">
      <rect
         style="fill:#ffffff;fill-opacity:1;stroke:#000000;stroke-width:0.0551442;stroke-dasharray:none;stroke-opacity:1"
         id="rect7"
         width="1.0047805"
         height="1.328074"
         x="73.250702"
         y="131.50327"
         ry="0.29457861" />
    </clipPath>
  </defs>
  <g
     id="layer1"
     transform="translate(-64.890222,-126.54712)">
    <path
       style="fill:#e0cfcf;fill-opacity:1;stroke:#000000;stroke-width:0.179115;stroke-dasharray:none;stroke-opacity:1"
       d="m 65.746528,127.97311 c 2.040382,-2.02638 5.969712,-1.62415 7.457636,0.37109 0.752429,1.00898 0.395857,2.85768 -0.89587,3.66811 -1.291727,0.81043 -4.82378,0.58806 -5.676266,-4.5e-4 -1.658194,-1.14474 -2.274637,-2.65915 -0.8855,-4.03875 z"
       id="path2" />
    <g
       id="text2"
       style="font-size:1.24278px;font-family:Zyzol;-inkscape-font-specification:Zyzol;fill:#ffffff;stroke:#000000;stroke-width:0.0645858"
       aria-label="Crack the &#10;egg!">
      <path
         style="text-align:center;text-anchor:middle"
         d="m 67.079376,128.39376 c -0.0174,-0.0447 -0.12055,-0.10191 -0.167776,-0.0932 -0.01119,0.002 -0.02983,0.0286 -0.03107,0.0298 -0.0261,0.036 -0.05717,0.0708 -0.09694,0.0895 -0.09321,0.0447 -0.192631,-0.0211 -0.236128,-0.10937 -0.07829,-0.15783 -0.0087,-0.38153 0.192631,-0.36537 0.06462,0.002 0.106879,0.0286 0.142919,0.082 0.0062,0.007 0.01491,0.007 0.02361,0.006 0.03977,-0.005 0.09818,-0.0261 0.132978,-0.0485 0.0075,-0.005 0.01367,-0.0137 0.01118,-0.0236 -0.05468,-0.1628 -0.269684,-0.23985 -0.428759,-0.19387 -0.147891,0.0323 -0.258499,0.1628 -0.292054,0.30821 -0.124278,0.4735 0.463557,0.79413 0.739454,0.3517 0.0075,-0.0137 0.01367,-0.0249 0.0099,-0.0336 z m 0.54061,-0.40142 c -0.005,-0.009 -0.05095,-0.009 -0.06338,-0.006 -0.05717,0.004 -0.116821,0.0186 -0.166532,0.0485 -0.0012,-0.002 -0.0012,-0.0547 -0.01243,-0.0584 -0.05344,-0.004 -0.151619,-0.006 -0.193874,0.005 -0.0099,0.002 -0.0075,0.0559 -0.0075,0.0559 0.0075,0.1802 0.01367,0.36414 0.02113,0.54434 0,0.002 0.0037,0.0522 0.01243,0.0522 0.0522,0.009 0.149133,0.002 0.193873,-0.005 0.01119,-0.002 0.0075,-0.0559 0.0075,-0.0559 -0.0025,-0.0721 -0.0062,-0.15535 -0.0099,-0.23364 0.0012,-0.001 0.0025,-0.004 0.0025,-0.005 0.03231,-0.0994 0.115579,-0.15659 0.155348,-0.16778 0.01491,-0.005 0.04971,-0.005 0.05965,-0.0174 0.0087,-0.0422 0.0075,-0.12055 0.0012,-0.15659 z m 0.758096,0.41509 c -0.0087,-0.005 -0.03356,0.0261 -0.03853,0.0298 -0.0261,0.0186 -0.03977,0 -0.04101,-0.0311 0.0025,-0.12428 0.01367,-0.24856 0.03355,-0.37159 0,0 0.0062,-0.0472 -0.0025,-0.0522 -0.0261,-0.0137 -0.195117,-0.0584 -0.201331,-0.009 -0.349221,-0.12179 -0.556765,0.28335 -0.361649,0.55304 0.09818,0.12427 0.279626,0.128 0.410118,0.0559 0.06338,0.0646 0.164047,0.0733 0.238614,0.0224 0.03853,-0.0236 0.06587,-0.0634 0.07581,-0.10812 -0.0012,-0.0137 -0.07954,-0.0696 -0.113093,-0.0895 z m -0.272169,0.004 c 0,0 -0.170261,0.0634 -0.181446,-0.0808 -0.01119,-0.14416 0.04971,-0.18642 0.186417,-0.16778 -0.0075,0.0833 -0.0087,0.16653 -0.005,0.24856 z m 0.955699,0.004 c -0.005,-0.007 -0.01243,-0.0124 -0.02113,-0.0124 -0.0261,0.001 -0.0609,0.0149 -0.08575,0.0162 -0.04474,0.009 -0.09197,0.001 -0.131735,-0.0199 -0.0025,-0.002 -0.0062,-0.005 -0.0099,-0.007 -0.005,-0.005 -0.0087,-0.0112 -0.01243,-0.0186 -0.01988,-0.0422 -0.02237,-0.0907 -0.0075,-0.1367 0.0025,-0.006 0.005,-0.0124 0.0075,-0.0187 0.04225,-0.0659 0.128007,-0.0646 0.198845,-0.0547 0.01119,10e-4 0.02361,10e-4 0.0261,-0.002 0.02486,-0.0423 0.04598,-0.087 0.06214,-0.13298 0.0025,-0.009 -0.0012,-0.0186 -0.0075,-0.0249 -0.06338,-0.0497 -0.162804,-0.0547 -0.239857,-0.0485 -0.147891,0.0174 -0.264712,0.13422 -0.283354,0.28211 -0.03231,0.21375 0.109365,0.40763 0.334308,0.39396 0.07208,-0.007 0.162804,-0.0249 0.217487,-0.0733 0.0062,-0.005 0.0087,-0.0137 0.0075,-0.0224 -0.01243,-0.0422 -0.03107,-0.082 -0.05468,-0.1193 z m 0.643761,0.0696 c -0.05468,-0.0683 -0.116822,-0.14416 -0.171504,-0.21251 0.03728,-0.0385 0.087,-0.0895 0.124278,-0.12801 0,0 0.03728,-0.0373 0.0348,-0.0447 -0.0261,-0.0435 -0.05965,-0.0808 -0.09818,-0.11309 -0.0062,-0.005 -0.05095,0.0311 -0.05095,0.0311 l -0.135463,0.10812 c -0.0037,-0.0932 -0.0075,-0.2063 -0.01118,-0.30075 0,0 -0.0012,-0.051 -0.0099,-0.0522 -0.05468,-0.007 -0.110608,-0.007 -0.16529,0 -0.0087,0.002 -0.0087,0.0559 -0.0087,0.0559 0,0 -0.0012,0.75064 0,0.75189 0,0.005 0,0.0497 0.0087,0.051 0.06463,0.009 0.129249,0.009 0.193874,0 0.01118,-0.001 0.0087,-0.0559 0.0087,-0.0559 -0.0012,-0.0348 -0.0037,-0.0907 -0.005,-0.12553 0.04847,0.0485 0.105636,0.10564 0.154105,0.15411 0,0 0.03355,0.036 0.0435,0.0335 0.04474,-0.0273 0.08451,-0.0621 0.118064,-0.1019 0.0062,-0.007 -0.02983,-0.051 -0.02983,-0.051 z m 1.050148,0.0162 c -0.02858,-0.041 -0.06214,-0.0783 -0.100665,-0.11061 -0.0087,-0.005 -0.03977,0.0137 -0.04225,0.0149 -0.01989,0.01 -0.07332,0.041 -0.105637,0.041 -0.0075,0.001 -0.01491,-0.001 -0.01988,-0.006 -0.0062,-0.005 -0.0087,-0.0124 -0.0075,-0.0199 0.0037,-0.092 0.0087,-0.19139 0.01243,-0.28211 0.0012,0 0.05095,-0.006 0.0522,-0.006 0,0 0.04723,-0.006 0.04847,-0.0149 0.005,-0.051 0.0025,-0.10191 -0.0087,-0.15286 -0.0025,-0.009 -0.05344,-0.007 -0.05344,-0.007 l -0.02983,10e-4 c 0.0012,-0.041 0.005,-0.0982 0.0062,-0.13919 0,0 0.0025,-0.0485 -0.0075,-0.051 -0.06463,-0.01 -0.129249,-0.0124 -0.193874,-0.009 -0.0099,0.002 -0.01118,0.0534 -0.01118,0.0534 -0.0012,0.0447 -0.0025,0.10563 -0.0037,0.15037 -0.0087,0 -0.05468,0.001 -0.06463,0.001 0,0 -0.04847,10e-4 -0.04971,0.0112 -0.0025,0.0646 0.0012,0.12925 0.01243,0.19263 0.0025,0.01 0.0522,0.004 0.0522,0.004 l 0.04474,-0.006 c -0.0025,0.0858 -0.0062,0.18144 -0.0075,0.2672 -0.0012,0.0348 0.0062,0.0684 0.02237,0.0994 0.087,0.15286 0.304481,0.12552 0.416331,0.0174 0.0037,-0.001 0.04101,-0.0373 0.03853,-0.0485 z m 0.687259,-0.0323 c -0.0037,-0.14168 -0.0075,-0.32188 -0.139192,-0.40764 -0.07705,-0.0472 -0.169018,-0.0597 -0.25477,-0.0335 0,0 -0.0012,0 -0.0012,0 -0.0037,-0.0746 -0.0037,-0.15411 -0.0099,-0.22991 -0.0012,-0.0124 -0.0037,-0.0261 -0.0087,-0.0261 -0.05841,-0.007 -0.118064,-0.006 -0.176475,0.002 -0.0087,0.002 -0.0075,0.0547 -0.0075,0.0547 0.0037,0.2585 0.005,0.51824 0.01243,0.77674 0.0012,0.0124 0.0037,0.0261 0.0087,0.0261 0.06462,0.009 0.129249,0.007 0.193873,-10e-4 0.0099,-0.002 0.0075,-0.0559 0.0075,-0.0559 -0.0037,-0.10315 -0.0075,-0.21624 -0.01118,-0.31939 0.02486,-0.0249 0.05965,-0.0385 0.09445,-0.036 0.01864,0.001 0.03728,0.009 0.05095,0.0211 0.07581,0.0659 0.05468,0.22246 0.06214,0.33556 0,0.01 0,0.0472 0.0075,0.0497 0.05095,0.0124 0.104394,0.0162 0.157833,0.0112 0.0087,-0.001 0.01118,-0.0559 0.01118,-0.0559 0.0012,-0.0336 0.0037,-0.0795 0.0025,-0.11185 z m 0.708384,-0.3542 c -0.0025,-0.007 -0.0075,-0.0137 -0.01118,-0.0199 -0.131734,-0.2324 -0.508297,-0.16778 -0.584106,0.0783 -0.105637,0.35544 0.232399,0.58287 0.539366,0.40142 0.0012,0.001 0.05344,-0.0323 0.04847,-0.0422 -0.01864,-0.0497 -0.08202,-0.12428 -0.111851,-0.15783 -0.0075,-0.009 -0.04101,0.0161 -0.04101,0.0149 -0.06338,0.036 -0.157833,0.0572 -0.211273,-0.001 -0.0062,-0.005 -0.0099,-0.0124 -0.01491,-0.0199 -0.02113,-0.0534 -0.02237,-0.12925 0.02237,-0.17026 0.0348,-0.0286 0.09818,-0.0522 0.151619,-0.0137 -0.02237,0.0112 -0.0435,0.0199 -0.0696,0.036 -0.01243,0.007 -0.0522,0.0286 -0.05095,0.0373 0.0075,0.0423 0.03231,0.0858 0.0522,0.10564 0.0075,0.006 0.07208,-0.0174 0.09197,-0.0236 0.0783,-0.0298 0.120549,-0.0435 0.196359,-0.0758 v 0 c 0,0 0.03728,-0.0149 0.0348,-0.0236 -0.0037,-0.0273 -0.01616,-0.0746 -0.04226,-0.12552 z"
         id="path8" />
      <path
         style="text-align:center;text-anchor:middle"
         d="m 68.816785,129.66761 c -0.0025,-0.007 -0.0075,-0.0137 -0.01118,-0.0199 -0.131735,-0.2324 -0.508297,-0.16777 -0.584107,0.0783 -0.105636,0.35543 0.2324,0.58286 0.539367,0.40142 0.0012,0.001 0.05344,-0.0323 0.04847,-0.0423 -0.01864,-0.0497 -0.08202,-0.12427 -0.11185,-0.15783 -0.0075,-0.009 -0.04101,0.0162 -0.04101,0.0149 -0.06338,0.036 -0.157833,0.0572 -0.211272,-0.001 -0.0062,-0.005 -0.0099,-0.0124 -0.01491,-0.0199 -0.02113,-0.0534 -0.02237,-0.12925 0.02237,-0.17026 0.0348,-0.0286 0.09818,-0.0522 0.15162,-0.0137 -0.02237,0.0112 -0.0435,0.0199 -0.0696,0.036 -0.01243,0.007 -0.0522,0.0286 -0.05095,0.0373 0.0075,0.0422 0.03231,0.0857 0.0522,0.10563 0.0075,0.006 0.07208,-0.0174 0.09197,-0.0236 0.0783,-0.0298 0.12055,-0.0435 0.19636,-0.0758 v 0 c 0,0 0.03728,-0.0149 0.0348,-0.0236 -0.0037,-0.0273 -0.01616,-0.0746 -0.04225,-0.12552 z m 0.720812,-0.077 c 0,0 0,-0.051 -0.01119,-0.0522 -0.06338,-0.01 -0.129249,-0.0124 -0.193874,-0.006 -0.0037,0.001 -0.0075,0.0124 -0.0087,0.0236 -0.259741,-0.0659 -0.446158,0.21003 -0.371591,0.44367 0.04474,0.14789 0.2237,0.22619 0.369105,0.18766 0.0037,0.0224 0.0012,0.0447 -0.0075,0.0646 -0.03107,0.0373 -0.09569,0.0385 -0.142919,0.0447 -0.04971,0.002 -0.09942,0.002 -0.150377,-0.001 -0.0037,-0.001 -0.04971,-0.002 -0.05095,0.005 -0.01616,0.0522 -0.02486,0.10564 -0.02361,0.16032 0,0.01 0.05593,0.0186 0.05593,0.0186 0.171503,0.0236 0.408874,0.0398 0.504568,-0.13794 0.02113,-0.0447 0.03231,-0.0932 0.03107,-0.14168 -0.0025,-0.19636 0.0025,-0.4126 0,-0.60896 z m -0.222458,0.37283 c 0,0 -0.02113,0.041 -0.09321,0.041 -0.07208,0 -0.130492,-0.0783 -0.08078,-0.19263 0.04971,-0.11309 0.173989,-0.0447 0.173989,-0.0447 z m 0.939542,-0.37283 c 0,0 0,-0.051 -0.01119,-0.0522 -0.06338,-0.01 -0.129249,-0.0124 -0.193873,-0.006 -0.0037,0.001 -0.0075,0.0124 -0.0087,0.0236 -0.259741,-0.0659 -0.446158,0.21003 -0.371591,0.44367 0.04474,0.14789 0.223701,0.22619 0.369106,0.18766 0.0037,0.0224 0.0012,0.0447 -0.0075,0.0646 -0.03107,0.0373 -0.09569,0.0385 -0.14292,0.0447 -0.04971,0.002 -0.09942,0.002 -0.150376,-0.001 -0.0037,-0.001 -0.04971,-0.002 -0.05095,0.005 -0.01616,0.0522 -0.02486,0.10564 -0.02361,0.16032 0,0.01 0.05593,0.0186 0.05593,0.0186 0.171504,0.0236 0.408875,0.0398 0.504569,-0.13794 0.02113,-0.0447 0.03231,-0.0932 0.03107,-0.14168 -0.0025,-0.19636 0.0025,-0.4126 0,-0.60896 z m -0.222458,0.37283 c 0,0 -0.02113,0.041 -0.09321,0.041 -0.07208,0 -0.130491,-0.0783 -0.08078,-0.19263 0.04971,-0.11309 0.173989,-0.0447 0.173989,-0.0447 z m 0.594048,-0.64252 c -0.0522,-0.007 -0.150376,-0.0162 -0.192631,-0.007 -0.01118,0.002 -0.0099,0.0534 -0.0099,0.0534 0.0012,0.15162 0.0037,0.31939 0.005,0.47101 0,0 0,0.0497 0.0087,0.0522 0.04225,0.0112 0.121792,0.01 0.159076,0.006 0.0087,-0.001 0.01118,-0.0534 0.01118,-0.0534 0.0075,-0.15535 0.0174,-0.31567 0.0261,-0.47101 0,0 0.0025,-0.051 -0.0075,-0.051 z m -0.221215,0.75561 c 0.005,0.15411 0.212516,0.15784 0.223701,0.007 -0.0062,-0.14665 -0.216244,-0.16032 -0.223701,-0.007 z"
         id="path9" />
    </g>
    <g
       id="g7"
       transform="translate(0.22585183,0.38816671)">
      <path
         id="rect3"
         style="fill:#ffffff;stroke:#000000;stroke-width:0.065"
         d="m 67.381141,130.608 h 2.00852 c 0.131369,0 0.237128,0.10576 0.237128,0.23713 v 0.27251 c 0,0.13137 -0.105759,0.23713 -0.237128,0.23713 h -2.00852 c -0.131369,0 -0.237129,-0.10576 -0.237129,-0.23713 v -0.27251 c 0,-0.13137 0.10576,-0.23713 0.237129,-0.23713 z" />
      <path
         style="font-size:0.368956px;font-family:Zyzol;-inkscape-font-specification:Zyzol;text-align:center;text-anchor:middle;stroke:#000000;stroke-width:0.00755344"
         d="m 67.961742,130.92267 c -0.01439,-0.003 -0.02841,-0.007 -0.04206,-0.0122 -0.01181,-0.006 -0.0081,-0.0243 0.0018,-0.0292 0.01882,-0.009 0.04575,0.001 0.06051,0.004 0.0018,3.7e-4 0.0063,7.4e-4 0.007,-3.7e-4 0.0096,-0.017 0.01623,-0.0351 0.01955,-0.0542 -0.03394,-0.0203 -0.101094,-0.0221 -0.132456,0.006 -0.03284,0.0284 -0.03616,0.0889 -0.0011,0.11696 0.02398,0.0203 0.05682,0.021 0.08486,0.0295 0.0059,0.001 0.01033,0.006 0.01107,0.0118 3.69e-4,0.006 -0.003,0.0114 -0.0085,0.0137 -0.02509,0.01 -0.05534,0 -0.0808,-0.006 -0.0074,-0.002 -0.01291,-0.004 -0.01402,-0.001 -0.0077,0.0148 -0.01365,0.0306 -0.01697,0.0469 0,0.001 0.0041,0.004 0.0081,0.005 0.0583,0.0214 0.164924,0.0317 0.170458,-0.0535 0.0044,-0.0406 -0.0214,-0.0664 -0.06752,-0.0775 z m 0.290738,0.0395 c -0.0011,-0.0664 -0.06162,-0.10848 -0.124708,-0.0941 -0.01513,-0.003 -0.04464,-0.006 -0.05719,-0.004 -0.0033,7.4e-4 -0.0037,0.0159 -0.0037,0.0159 -0.0011,0.0303 -0.0022,0.0627 -0.003,0.093 -0.0018,0.0509 -0.0037,0.10405 -0.0052,0.15497 -3.69e-4,0.003 -3.69e-4,0.0151 0.0018,0.0155 0.01365,0.004 0.03874,0.004 0.05055,0.003 0.003,0 0.0033,-0.0159 0.0033,-0.0159 h 3.69e-4 c 0.0011,-0.0221 0.0026,-0.0476 0.0041,-0.0701 0.07195,0.0243 0.13799,-0.0214 0.133563,-0.0985 z m -0.07711,0.0343 c -0.0011,3.7e-4 -0.0018,0.001 -0.0026,0.002 -0.01476,0.009 -0.03394,0.007 -0.05018,0.004 0.0015,-0.024 0.003,-0.0509 0.0044,-0.0749 0.01845,-0.002 0.04169,0 0.05202,0.0173 7.38e-4,0.002 0.0022,0.004 0.0026,0.006 0.0022,0.006 0.003,0.0133 0.0026,0.0203 -3.69e-4,0.009 -0.0022,0.0188 -0.0089,0.0258 z m 0.307709,0.004 c -0.0026,-0.001 -0.01,0.008 -0.01144,0.009 -0.0077,0.006 -0.01181,0 -0.01217,-0.009 7.38e-4,-0.0369 0.0041,-0.0738 0.01,-0.11032 0,0 0.0018,-0.014 -7.37e-4,-0.0155 -0.0077,-0.004 -0.05793,-0.0174 -0.05977,-0.003 -0.103677,-0.0362 -0.165293,0.0841 -0.107367,0.16419 0.02915,0.0369 0.08302,0.038 0.121756,0.0166 0.01882,0.0192 0.0487,0.0218 0.07084,0.007 0.01144,-0.007 0.01955,-0.0188 0.02251,-0.0321 -3.69e-4,-0.004 -0.02361,-0.0207 -0.03357,-0.0266 z m -0.0808,0.001 c 0,0 -0.05055,0.0188 -0.05387,-0.024 -0.0033,-0.0428 0.01476,-0.0553 0.05534,-0.0498 -0.0022,0.0247 -0.0026,0.0494 -0.0015,0.0738 z m 0.283728,10e-4 c -0.0015,-0.002 -0.0037,-0.004 -0.0063,-0.004 -0.0077,3.7e-4 -0.01808,0.004 -0.02546,0.005 -0.01328,0.003 -0.0273,3.7e-4 -0.03911,-0.006 -7.38e-4,-7.4e-4 -0.0018,-0.001 -0.003,-0.002 -0.0015,-0.001 -0.0026,-0.003 -0.0037,-0.006 -0.0059,-0.0126 -0.0066,-0.0269 -0.0022,-0.0406 7.38e-4,-0.002 0.0015,-0.004 0.0022,-0.006 0.01255,-0.0196 0.038,-0.0192 0.05903,-0.0162 0.0033,3.7e-4 0.007,3.7e-4 0.0077,-7.3e-4 0.0074,-0.0126 0.01365,-0.0258 0.01845,-0.0395 7.38e-4,-0.003 -3.69e-4,-0.006 -0.0022,-0.007 -0.01882,-0.0148 -0.04833,-0.0162 -0.07121,-0.0144 -0.04391,0.005 -0.07859,0.0399 -0.08412,0.0838 -0.0096,0.0635 0.03247,0.12102 0.09925,0.11696 0.0214,-0.002 0.04833,-0.007 0.06457,-0.0218 0.0018,-0.001 0.0026,-0.004 0.0022,-0.007 -0.0037,-0.0125 -0.0092,-0.0243 -0.01623,-0.0354 z m 0.222111,-0.0893 c -7.37e-4,-0.002 -0.0022,-0.004 -0.0033,-0.006 -0.03911,-0.069 -0.150903,-0.0498 -0.173409,0.0232 -0.03136,0.10552 0.06899,0.17304 0.160126,0.11917 3.69e-4,3.7e-4 0.01587,-0.01 0.01439,-0.0126 -0.0055,-0.0147 -0.02435,-0.0369 -0.03321,-0.0468 -0.0022,-0.003 -0.01218,0.005 -0.01218,0.004 -0.01882,0.0107 -0.04686,0.017 -0.06272,-3.7e-4 -0.0018,-0.001 -0.003,-0.004 -0.0044,-0.006 -0.0063,-0.0159 -0.0066,-0.0384 0.0066,-0.0505 0.01033,-0.008 0.02915,-0.0155 0.04501,-0.004 -0.0066,0.003 -0.01291,0.006 -0.02066,0.0107 -0.0037,0.002 -0.0155,0.008 -0.01513,0.0111 0.0022,0.0126 0.0096,0.0255 0.0155,0.0314 0.0022,0.002 0.0214,-0.005 0.0273,-0.007 0.02324,-0.009 0.03579,-0.0129 0.0583,-0.0225 v 0 c 0,0 0.01107,-0.004 0.01033,-0.007 -0.0011,-0.008 -0.0048,-0.0221 -0.01255,-0.0373 z"
         id="text4"
         aria-label="Space" />
    </g>
    <g
       id="g8"
       transform="translate(0.10867689,0.32537698)">
      <path
         id="rect4"
         style="fill:#ffffff;stroke:#000000;stroke-width:0.0448022"
         d="m 70.54571,130.38988 h 0.219774 c 0.14537,0 0.2624,0.11703 0.2624,0.2624 v 0.6582 c 0,0.14537 -0.11703,0.2624 -0.2624,0.2624 H 70.54571 c -0.145369,0 -0.2624,-0.11703 -0.2624,-0.2624 v -0.6582 c 0,-0.14537 0.117031,-0.2624 0.2624,-0.2624 z" />
      <path
         id="rect5"
         clip-path="url(#clipPath6)"
         style="stroke:#000000;stroke-width:0.0649999"
         transform="matrix(0.74474764,0,0,0.74474764,15.728156,32.451272)"
         d="m 73.109108,131.15096 h 0.643983 v 1.01635 h -0.643983 z" />
      <path
         style="fill:#000000;fill-opacity:1;stroke:#000000;stroke-width:0.0484085;stroke-dasharray:none;stroke-opacity:1"
         d="m 70.281444,130.88255 h 0.748309"
         id="path7" />
    </g>
  </g>
</svg>
